<!DOCTYPE svg PUBLIC "-//W3C//DTD SVG 1.1//EN" "http://www.w3.org/Graphics/SVG/1.1/DTD/svg11.dtd">
<!-- Uploaded to: SVG Repo, www.svgrepo.com, Transformed by: SVG Repo Mixer Tools -->
<svg version="1.1" id="Icons" xmlns="http://www.w3.org/2000/svg" xmlns:xlink="http://www.w3.org/1999/xlink" viewBox="0 0 32 32" xml:space="preserve" width="800px" height="800px" fill="#000000" stroke="#000000">
<g id="SVGRepo_bgCarrier" stroke-width="0"/>
<g id="SVGRepo_tracerCarrier" stroke-linecap="round" stroke-linejoin="round"/>
<g id="SVGRepo_iconCarrier"> <style type="text/css"> .st0{fill:none;stroke:#ffda6e;stroke-width:2;stroke-linecap:round;stroke-linejoin:round;stroke-miterlimit:10;} </style> <line class="st0" x1="4" y1="24" x2="28" y2="24"/> <polygon class="st0" points="16,2 10,5 16,8 22,5 "/> <polyline class="st0" points="10,5 10,12 16,15 22,12 22,5 "/> <line class="st0" x1="16" y1="8" x2="16" y2="15"/> <path class="st0" d="M28.5,23.4l-3.9-4.7c-0.4-0.5-0.9-0.7-1.5-0.7H8.9c-0.6,0-1.2,0.3-1.5,0.7l-3.9,4.7C3.2,23.8,3,24.3,3,24.7V27 c0,1.1,0.9,2,2,2h22c1.1,0,2-0.9,2-2v-2.3C29,24.3,28.8,23.8,28.5,23.4z"/> </g>
</svg>